<mxfile host="app.diagrams.net" agent="Mozilla/5.0 (Windows NT 10.0; Win64; x64) AppleWebKit/537.36 (KHTML, like Gecko) Chrome/136.0.0.0 Safari/537.36" version="27.0.9">
  <diagram name="Page-1" id="GcEH7H9YARGhfyzEa8Xg">
    <mxGraphModel dx="834" dy="459" grid="1" gridSize="10" guides="1" tooltips="1" connect="1" arrows="1" fold="1" page="1" pageScale="1" pageWidth="850" pageHeight="1100" math="0" shadow="0">
      <root>
        <mxCell id="0" />
        <mxCell id="1" parent="0" />
        <mxCell id="IXQ-g1XbYJZ5EWMakvMw-9" value="User" style="swimlane;whiteSpace=wrap;html=1;" vertex="1" parent="1">
          <mxGeometry x="240" y="190" width="80" height="200" as="geometry" />
        </mxCell>
        <mxCell id="IXQ-g1XbYJZ5EWMakvMw-11" value="email" style="text;html=1;align=center;verticalAlign=middle;resizable=0;points=[];autosize=1;strokeColor=none;fillColor=none;" vertex="1" parent="IXQ-g1XbYJZ5EWMakvMw-9">
          <mxGeometry x="10" y="90" width="50" height="30" as="geometry" />
        </mxCell>
        <mxCell id="IXQ-g1XbYJZ5EWMakvMw-12" value="password" style="text;html=1;align=center;verticalAlign=middle;resizable=0;points=[];autosize=1;strokeColor=none;fillColor=none;" vertex="1" parent="IXQ-g1XbYJZ5EWMakvMw-9">
          <mxGeometry x="5" y="110" width="70" height="30" as="geometry" />
        </mxCell>
        <mxCell id="IXQ-g1XbYJZ5EWMakvMw-13" value="image" style="text;html=1;align=center;verticalAlign=middle;resizable=0;points=[];autosize=1;strokeColor=none;fillColor=none;" vertex="1" parent="IXQ-g1XbYJZ5EWMakvMw-9">
          <mxGeometry y="140" width="60" height="30" as="geometry" />
        </mxCell>
        <mxCell id="IXQ-g1XbYJZ5EWMakvMw-14" value="role" style="text;html=1;align=center;verticalAlign=middle;resizable=0;points=[];autosize=1;strokeColor=none;fillColor=none;" vertex="1" parent="IXQ-g1XbYJZ5EWMakvMw-9">
          <mxGeometry x="5" y="170" width="40" height="30" as="geometry" />
        </mxCell>
        <mxCell id="IXQ-g1XbYJZ5EWMakvMw-21" value="name" style="text;html=1;align=center;verticalAlign=middle;resizable=0;points=[];autosize=1;strokeColor=none;fillColor=none;" vertex="1" parent="IXQ-g1XbYJZ5EWMakvMw-9">
          <mxGeometry x="10" y="60" width="50" height="30" as="geometry" />
        </mxCell>
        <mxCell id="IXQ-g1XbYJZ5EWMakvMw-10" value="_id" style="text;html=1;align=center;verticalAlign=middle;resizable=0;points=[];autosize=1;strokeColor=none;fillColor=none;" vertex="1" parent="1">
          <mxGeometry x="250" y="218" width="40" height="30" as="geometry" />
        </mxCell>
        <mxCell id="IXQ-g1XbYJZ5EWMakvMw-15" value="Attendances" style="swimlane;whiteSpace=wrap;html=1;" vertex="1" parent="1">
          <mxGeometry x="480" y="190" width="130" height="210" as="geometry" />
        </mxCell>
        <mxCell id="IXQ-g1XbYJZ5EWMakvMw-16" value="userId" style="text;html=1;align=center;verticalAlign=middle;resizable=0;points=[];autosize=1;strokeColor=none;fillColor=none;" vertex="1" parent="IXQ-g1XbYJZ5EWMakvMw-15">
          <mxGeometry y="58" width="60" height="30" as="geometry" />
        </mxCell>
        <mxCell id="IXQ-g1XbYJZ5EWMakvMw-17" value="CheckInTime" style="text;html=1;align=center;verticalAlign=middle;resizable=0;points=[];autosize=1;strokeColor=none;fillColor=none;" vertex="1" parent="IXQ-g1XbYJZ5EWMakvMw-15">
          <mxGeometry y="85" width="90" height="30" as="geometry" />
        </mxCell>
        <mxCell id="IXQ-g1XbYJZ5EWMakvMw-18" value="CheckOutTime" style="text;html=1;align=center;verticalAlign=middle;resizable=0;points=[];autosize=1;strokeColor=none;fillColor=none;" vertex="1" parent="IXQ-g1XbYJZ5EWMakvMw-15">
          <mxGeometry y="115" width="100" height="30" as="geometry" />
        </mxCell>
        <mxCell id="IXQ-g1XbYJZ5EWMakvMw-19" value="CheckInStatus" style="text;html=1;align=center;verticalAlign=middle;resizable=0;points=[];autosize=1;strokeColor=none;fillColor=none;" vertex="1" parent="IXQ-g1XbYJZ5EWMakvMw-15">
          <mxGeometry y="145" width="100" height="30" as="geometry" />
        </mxCell>
        <mxCell id="IXQ-g1XbYJZ5EWMakvMw-20" value="_id" style="text;html=1;align=center;verticalAlign=middle;resizable=0;points=[];autosize=1;strokeColor=none;fillColor=none;" vertex="1" parent="IXQ-g1XbYJZ5EWMakvMw-15">
          <mxGeometry x="10" y="28" width="40" height="30" as="geometry" />
        </mxCell>
        <mxCell id="IXQ-g1XbYJZ5EWMakvMw-22" value="CheckOutStatus" style="text;html=1;align=center;verticalAlign=middle;resizable=0;points=[];autosize=1;strokeColor=none;fillColor=none;" vertex="1" parent="IXQ-g1XbYJZ5EWMakvMw-15">
          <mxGeometry y="175" width="110" height="30" as="geometry" />
        </mxCell>
        <mxCell id="IXQ-g1XbYJZ5EWMakvMw-23" value="" style="endArrow=classic;html=1;rounded=0;entryX=0.167;entryY=0.4;entryDx=0;entryDy=0;entryPerimeter=0;" edge="1" parent="1" source="IXQ-g1XbYJZ5EWMakvMw-10" target="IXQ-g1XbYJZ5EWMakvMw-16">
          <mxGeometry width="50" height="50" relative="1" as="geometry">
            <mxPoint x="320" y="230" as="sourcePoint" />
            <mxPoint x="370" y="180" as="targetPoint" />
          </mxGeometry>
        </mxCell>
      </root>
    </mxGraphModel>
  </diagram>
</mxfile>
